<?xml version="1.0" encoding="UTF-8"?>
<svg xmlns="http://www.w3.org/2000/svg" version="1.1" viewBox="0 0 1920 1920">
  <!-- Generator: Adobe Illustrator 28.7.1, SVG Export Plug-In . SVG Version: 1.2.0 Build 142)  -->
  <g>
    <g id="Calque_1">
      <g>
        <path d="M509.2,1541.8c-21.6,4.4-42.6,11.1-63.8,12.5-51.8,3.6-92.6-17-120.4-61.6-2.4-3.9-4.3-8.2-6-12.5-11.3-29.1.2-46.7,31.5-48.2,21.3-1,33.6-20.4,25.6-43.3-4.1-11.8-10.9-23.2-18.7-33.1-27.9-35.3-41.5-74.7-37.8-119.8,3.1-38.9,19.8-71.9,43.6-101.9,7.2-9.1,14.1-18.4,21.2-27.6,21.6-27.9,26.5-58.2,14.7-91.8-8.2-23.3-17-46.7-21.3-70.9-9.2-51.4,7.9-96.5,41.5-135,15.7-18,34.6-33.2,51.8-49.9,20.8-20.2,31-45,30.1-74.1-.7-20.9-2.5-41.8-2.3-62.6.4-60.1,21.5-111.8,64.9-153.9,3.6-3.5,7-7.2,10.4-10.9.4-.4,0-1.4,0-3.2-32.2-4-62.8-14.2-91.7-29.3-40.8-21.3-76-49.4-100.6-89-23.6-38-15.1-57.1,28.5-66.5,48.1-10.4,94.5-2.7,140.1,13.2,5,1.7,10,3.3,17.8,5.9-3.8-6.7-6.2-10.9-8.7-15.1-17.5-29.6-29.9-61-36.4-94.8-6.3-32.5,8.8-52,42-50.5,83.4,3.8,146.1,43,189.3,114.1,2,3.3,4,6.6,6.1,9.9.4.6,1.2.8,2.8,1.9,1.9-5.2,3.8-10.2,5.5-15.2,10.9-31.7,24.2-62.2,46.4-87.7,7.8-8.9,17-17.1,26.9-23.6,19.2-12.6,38.6-7.7,51,11.6,16.6,25.9,22.5,55,23.8,85.1.7,15.4-.4,31-2.5,46.3-2.1,15.2-6.5,30.1-10.2,46.3,15.7-3.7,31.1-8.1,46.7-11,102-19.4,201.8-14.1,297.6,29,36.7,16.5,70.7,37.5,94.2,71.4,7.1,10.3,10.9,22.9,16.2,34.4,4,8.5,6.6,18.2,12.4,25.4,43,52.9,66.3,114,76.1,180.8,3.2,22.2,4.2,44.7,7.8,66.9,5.2,32.4,20.5,60.8,39,87.3,17.5,25.1,36.5,49,54.3,73.9,13.7,19.2,21.4,40.3,16.5,64.5-3.7,18.3-14.4,31.9-30.5,40.3-12.9,6.7-26.9,11.8-40.8,16.3-7.6,2.5-9.2,5.6-7.9,13.3,3.3,19,6.4,38.1,8.1,57.2,1.2,13.2-4.3,24.8-13.3,34.8-2.7,3-5.5,8.7-4.4,11.8,10.2,29.2-2,51.5-21.3,71.4-6.9,7.1-8.8,14.1-7.7,23.9,3.5,31.9,3.6,63.4-16.5,91.4-23.8,33.1-57.8,46.5-96.2,51.7-42.9,5.9-85,.3-126.5-10.2-11.4-2.9-17.7.5-20.3,10.5-5.2,20.2-11.3,40.4-13.5,61-2.5,23.3-1.7,47.1-1,70.6.1,5,4.5,11.6,8.8,14.6,75.7,52,125.8,122.8,154.4,209.3,9.5,28.7-6.7,51.1-36.7,51.2-158,.6-316.1,1-474.1.9-113.5,0-227-.6-340.5-1.2-31.5-.2-47.4-20.3-41-51.2,12.1-58,30.2-113.7,64.7-162.8.4-.6.4-1.5.5-2ZM1324.2,489.3c-3,3.6-5.3,6.6-7.9,9.3-20,21-38.7,43.5-60.5,62.5-66.8,58.1-144.4,96.7-228.9,121.7-8.9,2.6-13,6.4-14.8,16-5.2,28.2-14.6,54.7-38.1,73.7-20.4,16.5-35.3,14.9-51-5.7-1.9-2.5-3.6-5-5.5-7.5-25-32-57.2-46.3-97.1-36.2-38.6,9.8-57.6,38.3-64,76-6.9,40.9,4.1,79,20.3,116,7.5,17.1,8.5,16.7,26,10.2,56.3-21,109.6-15.6,155.9,23.6,81.4,69,78.9,198.7-4,266.3-5.2,4.2-6.7,7.5-4.3,14.6,5.8,16.7,11.6,33.7,14.4,51.1,8.6,53-22,100.2-72,113.2-55,14.3-108.1-15.4-118.5-67.2-2.5-12.3-2.1-25.4-1.6-38.1.5-12.7,2.9-25.3,4.5-37.9-1-.3-2-.6-3-1-5.8,15.4-13.1,30.4-17.1,46.3-3.6,14.5-4.5,29.8-4.8,44.8-.5,22.2-9.2,41.1-22.1,58.8,2.3,1.4,3.5,2.5,4.8,3,49.2,20,93.2,48.8,136.2,79.4,48.7,34.6,98.3,67.7,154.4,89.3,34.5,13.3,69.7,24.1,107.1,23,11.7-.3,24.1-2.7,34.7-7.5,14.9-6.6,15.2-18.4,2.6-28.5-4.8-3.9-9.9-7.4-14.9-11.1-15.7-11.9-27.9-26.3-29.2-46.8-1.6-25.8-4.3-51.9-2.3-77.5,2.3-29.9,8.9-59.5,14.2-89.2,1.4-7.8.2-12.3-7.5-15.5-11.1-4.5-22.2-9.3-32.7-15.1-30.1-16.4-58.8-34.7-78.4-64-8.6-12.8-7.4-26.5,2.1-34.8,9.3-8.1,16.7-7.4,30,5.5,32.6,31.8,71.2,53.2,114.3,66.7,53.9,16.9,108.7,28,165.6,22.4,17-1.7,33.5-5.8,47.1-17.5,21.5-18.4,30.3-41.1,21.7-68.4-7.9-25.2-.5-43.5,21.2-57.6,4.6-2.9,8.5-8.2,10.6-13.3,6.9-16.6.5-25.8-16.8-27.9-27.9-3.5-56-7-83.5-12.6-15.9-3.2-22.6-15.5-18.5-27,3.5-9.9,12.7-11.8,28.7-6.9,32.3,9.9,64.5,11.7,96.4-2.1,10.2-4.4,15.9-11.1,14-22.4-1.8-10.3-4.5-20.4-6.3-30.6-1.6-8.9-6.4-12.1-15.3-11.6-6.1.3-12.4-.6-18.4-1.9-21-4.2-34.3-20.7-36.1-44.1-1.5-19.7,7.6-37.2,24.2-41.8,6.4-1.8,15.3,0,21.2,3.3,7.4,4.3,8.9,12.8,6,21.7-4.9,15.1-.2,21.5,15.8,18.6,20.1-3.7,39.9-9.1,59.3-15.5,13.3-4.4,18.6-16.5,14.3-30.2-2.6-8.3-7.1-16.4-12.4-23.4-15.5-20.3-32.6-39.4-47.5-60.1-29.5-40.8-49.2-85.4-51.8-137-2.4-48.3-12.9-95.1-35.1-138.6-11.8-23.1-25.8-44.8-45.9-63.3ZM624.3,1484.4c8.3,1.6,14,2.9,19.7,3.7,56.9,7.7,104.9,33.4,146.5,72,41.4,38.3,69.7,85.6,93.3,136,3.6,7.7,7.9,10.8,16.6,10.8,122.3-.3,244.7-.1,367-.2,4.4,0,8.9-1,15.4-1.8-15.4-38.3-34.7-72-60.9-103-3.1,3.8-5.3,6.4-7.3,9.1-13.3,18.9-32.1,30.2-54.3,32.1-23.3,2-47.3,2.4-70.3-.9-58.8-8.4-111.9-33.5-162.2-63.6-45.4-27.2-88.5-58.3-133.5-86.4-24.5-15.3-50.4-28.7-76.4-41.4-9.3-4.5-21.6-7.8-31.2-5.6-23.7,5.5-42.9,20.3-62.4,39.1ZM411.4,1484.6l.4,4c8.7.2,17.7,2,26.1.3,18.2-3.7,32.3-14.8,43-29.7,25.4-35.1,29.7-73.4,13.4-113.2-6.9-16.8-16.2-32.6-24.8-48.6-17.3-31.8-19.2-64.7-3.8-97,11.1-23.2,24.9-45.5,39.6-66.7,18.3-26.3,32.4-53.7,25.5-86.3-3.9-18.7-11.5-36.9-18.9-54.6-21.8-51.9-16.6-100.5,16-146.1,8.1-11.3,16.9-22.2,25.6-33.1,17.8-22.2,30.9-46.4,33.5-75.2,1.4-15.8,1.8-31.6,2.2-47.5,2.4-90.3,34.7-164.9,112.7-215.7,6.1-4,11-9.8,16.5-14.8-.6-1.2-1.1-2.5-1.7-3.7-9.4.7-19,.2-28.1,2.3-65,14.5-116.4,71.1-124.6,140.3-3.7,31.4-2.5,63.3-2.7,95-.3,42-14.7,77.8-44.9,107.2-10,9.7-20.4,19.1-29.5,29.6-30.4,34.8-47.9,74.7-39.1,121.5,4.5,23.7,14,46.5,22,69.5,14.4,40.9,12.2,79-16.4,113.5-5.2,6.3-10.3,12.6-15.7,18.7-43.8,50.2-57.2,106.5-15.2,168.5,9.9,14.7,19.3,30.2,25.8,46.6,17.1,42.7,4.4,83.9-32.3,111-1.7,1.3-3.3,2.8-4.9,4.3ZM662.6,1706.7c49.9,0,99.9,0,149.8,0,17.3,0,18.6-1.9,11.1-17.8-17-35.9-41.9-65.9-71.2-92.2-35.5-31.9-75.9-54.6-124.1-61.2-25.3-3.5-48,1.7-64.9,22.2-32.4,39.3-51.6,85.1-64.1,133.9-3.2,12.5-.6,15,12.4,15,50.3,0,100.6,0,151,0ZM658.4,603.7c.9,1.5,1.8,3,2.7,4.5,14.8,1.8,29.5,4,44.3,5.5,65.5,6.7,130.5,2.6,194.9-11,66.8-14.1,131-36.6,194.5-61.1,69.4-26.8,137-57.5,199.2-99.1,10-6.7,10.5-9.1,1-16.1-17.1-12.6-34.9-24.3-52.1-36.7-5.6-4-9.1-2.8-13.9,1.6-15.4,14.1-30.5,28.7-47.2,41.2-104,78.3-223.9,111.4-351.6,120-43.5,2.9-87.3.4-131,.6-3.5,0-8.6,1-10.2,3.3-10.6,15.5-20.5,31.5-30.6,47.3ZM971.1,1079.3c.5-24.5-5.9-47-18.3-67.7-23.7-39.6-60.7-54.1-104.6-51.2-40.7,2.7-70.6,23.8-87.1,61.7-16.4,37.5-15.9,75.5,1,112.6,29.7,65.3,99.5,79.6,146.7,53.9,42.6-23.1,60.6-62.1,62.4-109.3ZM579.5,181.8c1.6,5.3,2.7,9.3,4,13.2,13.9,40.4,35.4,76.5,63.2,108.6,24.3,28.1,52.5,51.4,88.4,63.7,3.7,1.3,7.6,1.7,11.9,2.7-6.8-98.6-94.8-182-167.5-188.2ZM431.5,316.2c27.9,54.9,176.3,112.2,216.3,84.9-62.4-51.5-130.4-87.9-216.3-84.9ZM820.2,1296.6c1.5,28.3,15,46.6,37.6,49.3,28.5,3.4,51.7-11.8,55.2-40.2,1.9-15.8-2.8-32.6-5.2-48.8-1.4-9.4-7.7-11.5-17-10.8-15.7,1.1-31.5,1-47.2.2-7.7-.4-12,1.7-13.7,8.8-3.4,13.8-6.5,27.7-9.7,41.5ZM858.6,185.8c-29.7,14.7-63.1,125.2-50.7,165.8,53.3-18.5,70.4-118.3,50.7-165.8Z"/>
        <path d="M1301.1,629.5c13.9,2.7,28.4,3.9,41.6,8.6,16.3,5.8,19.5,25.3,6.8,35.4-3.8,3-10.2,5.2-14.7,4.3-52.4-10.4-98.6,5.2-142.1,32.7-8.5,5.4-16.7,11.3-25.4,16.2-7.1,4-16.5,6.2-20.8-1.6-3-5.5-3.1-16.3.5-21,9.3-12.1,20.3-23.5,32.5-32.6,35.8-26.7,76.5-39.9,121.6-42.1Z"/>
        <path d="M787.1,831.7c2.9-11.9,4.2-24.5,8.9-35.6,15.6-36.5,60.3-42.7,86.7-12.8,11.9,13.5,17.8,29.8,20.1,47.3,1.7,12.7-6.5,23.4-17.6,24.5-11.5,1.1-18.1-5.5-20.9-19.8-1.4-7.1-2.7-14.9-6.7-20.5-3.3-4.6-10.6-8.9-15.8-8.6-4.5.3-10.6,6.5-12.5,11.4-5.7,14.3-3.3,28.8,2.8,42.8,1.2,2.8,3,5.4,4.3,8.2,5.4,10.9,3.5,20.4-5,25.4-8.5,5-20.3,2.3-26.6-6.9-11.3-16.5-15.7-35.1-17.6-55.3Z"/>
        <path d="M1331.5,791.5c-.2,30.2-21.5,49.3-47.9,42.9-21.5-5.2-33.8-29.7-28.1-56.2,5.1-23.9,23-36.7,45.3-32.4,19.3,3.7,30.9,21,30.7,45.7Z"/>
        <path d="M924.3,1081.6c-.2,51.6-47.2,83.1-91.4,61.3-34.3-16.9-47.3-65.5-26.8-100.5,19.5-33.3,60.6-42.2,92.2-19.9,16.6,11.7,26,33.2,25.9,59.1ZM842.8,1080.9c0,12.6,7.4,20.9,18.2,20.7,9.7-.2,18.7-9.8,18.7-20,0-12.1-8.6-22-19.1-21.9-10.7,0-17.8,8.5-17.8,21.2Z"/>
      </g>
    </g>
  </g>
</svg>